<?xml version="1.0" standalone="no"?><!DOCTYPE svg PUBLIC "-//W3C//DTD SVG 1.1//EN" "http://www.w3.org/Graphics/SVG/1.1/DTD/svg11.dtd"><svg t="1606289060927" class="icon" viewBox="0 0 1024 1024" version="1.1" xmlns="http://www.w3.org/2000/svg" p-id="1096" xmlns:xlink="http://www.w3.org/1999/xlink" width="200" height="200"><defs><style type="text/css"></style></defs><path d="M563.2 370.347a100.352 100.352 0 1 0 200.704 0 100.352 100.352 0 1 0-200.704 0z" fill="#D4EADC" p-id="1097"></path><path d="M934.23 121.515a22.733 22.733 0 0 0-15.702-15.702 563.2 563.2 0 0 0-266.581 4.438c-93.867 25.258-179.883 74.752-248.832 143.36l-9.216 9.216h-2.39l-11.264 11.264a13.312 13.312 0 0 1-15.701 4.437 183.979 183.979 0 0 0-105.13-9.216c-34.475 7.51-66.56 24.576-91.82 49.493h-2.047a185.858 185.858 0 0 0-51.542 103.083c-3.413 22.528-2.73 45.056 2.39 67.243a22.426 22.426 0 0 0 33.45 15.701l24.576-13.312a234.496 234.496 0 0 1 71.68-15.701h6.827l6.827 4.437c2.389 3.072 3.072 7.168 2.389 11.264-6.827 24.917-11.947 50.517-15.701 76.117-2.39 22.528-4.438 42.667-4.438 62.806 0 5.802 2.39 11.605 6.827 15.701l136.875 150.187c4.096 4.437 9.557 6.826 15.701 6.826l64.853-4.437 78.507-15.701h4.437l8.875 4.437c2.73 2.39 4.096 5.461 4.437 8.875-0.682 25.258-6.144 50.517-15.701 74.069l-13.312 24.576a22.357 22.357 0 0 0 13.653 33.45l38.23 2.39h31.402c38.23-6.485 73.387-24.576 100.694-51.541h2.389a188.28 188.28 0 0 0 42.667-199.339 13.346 13.346 0 0 1 2.389-18.09l22.528-22.529c68.95-68.608 118.443-154.624 143.36-248.832 22.528-88.064 23.893-180.224 3.413-268.97zM887.124 379.22c-23.21 87.723-69.632 167.254-134.485 230.742l-20.139 18.09c-17.408 15.702-23.552 40.619-15.701 62.806 20.48 52.565 8.192 112.298-31.403 152.576h-2.389c-20.821 20.821-47.445 34.816-76.117 40.277-9.558 0-16.384-9.216-13.312-18.432 7.85-22.87 12.288-47.104 13.312-71.339 0.682-15.36-5.12-30.378-15.36-41.984-10.582-11.264-25.259-18.09-40.619-18.773h-20.139l-71.68 13.312-49.493 4.779-125.61-125.611c0-15.701 2.389-33.45 4.437-49.152 3.754-24.235 8.874-48.128 15.701-71.68 3.755-15.36 1.365-31.403-6.827-44.715a57.685 57.685 0 0 0-33.792-22.528h-19.797c-23.21 1.366-45.739 5.803-67.925 12.971a13.483 13.483 0 0 1-17.408-15.019v-0.341a138.762 138.762 0 0 1 38.229-76.117h2.39a142.882 142.882 0 0 1 152.234-31.403 58.027 58.027 0 0 0 64.853-15.701l8.875-8.875 11.264-8.875c63.488-63.146 142.336-108.885 228.693-132.096 74.752-22.528 153.6-27.989 230.742-15.701 15.36 77.141 12.288 156.672-8.534 232.79z" fill="#666666" p-id="1098"></path><path d="M270.677 751.275a22.46 22.46 0 0 0-31.402 0L120.49 870.059c-7.168 5.12-10.24 13.994-8.534 22.869 1.707 8.533 8.534 15.36 17.067 17.067 8.533 1.706 17.408-1.366 22.87-8.534l118.783-118.784c8.534-8.874 8.534-22.528 0-31.402z m-134.485 38.229c5.803 0 11.605-2.39 15.701-6.827l60.416-60.416c6.827-8.874 5.803-21.504-2.048-29.354a22.391 22.391 0 0 0-29.354-2.048l-60.416 60.416c-6.144 6.485-8.192 16.042-4.779 24.234 3.413 8.192 11.605 13.654 20.48 13.995z m163.84 20.139l-60.416 60.416c-7.168 5.12-10.24 13.994-8.533 22.869 1.706 8.533 8.533 15.36 17.066 17.067 8.534 1.706 17.408-1.366 22.87-8.534l60.416-60.416a22.391 22.391 0 1 0-31.403-31.402z" fill="#32AE1B" p-id="1099"></path><path d="M674.133 235.861c-74.41 0-134.485 60.075-134.485 134.486 0 74.41 60.075 134.485 134.485 134.485 74.411 0 134.486-60.075 134.486-134.485 0-74.411-60.075-134.486-134.486-134.486z m0 223.915c-49.493 0-89.77-40.277-89.77-89.77s40.277-89.771 89.77-89.771 89.771 40.277 89.771 89.77c0 49.835-40.277 89.771-89.77 89.771z m0 0" fill="#666666" p-id="1100"></path></svg>